# xmcd
#
# Track frame offsets: 
#        150
#        9277
#        18380
#        36082
#        42348
#        49991
#
# Disc length: 767 seconds
#
# Revision: 0
# Processed by: cddbd v1.5.2PL0 Copyright (c) Steve Scherf et al.
# Submitted via: ExactAudioCopy v0.99pb4
#
DISCID=4102fd06
DTITLE=Thee Verduns - Damn 6 Songs
DYEAR=2009
DGENRE=Blues
TTITLE0=L'Eau Écarlate
TTITLE1=Knock On Wood
TTITLE2=Men, Men, Men
TTITLE3=J'attends
TTITLE4=Outlaw
TTITLE5=A Lost Soul
EXTD=
EXTT0=
EXTT1=
EXTT2=
EXTT3=
EXTT4=
EXTT5=
PLAYORDER=
